<svg width="33" height="33" viewBox="0 0 33 33" fill="none" xmlns="http://www.w3.org/2000/svg">
<path d="M33 16.462C33 15.3031 32.9077 14.1394 32.7137 13H17V19.5612H25.9975C25.8119 20.6111 25.421 21.6114 24.8487 22.5015C24.2764 23.3916 23.5344 24.153 22.6678 24.7395V29H28.0374C31.1896 26.0298 33 21.6476 33 16.462Z" fill="#4285F4"/>
<path d="M16.9283 33C21.433 33 25.2327 31.5755 28 29.117L22.6173 25.0984C21.1197 26.0795 19.1854 26.6356 16.9331 26.6356C12.5756 26.6356 8.88033 23.8049 7.55363 20H2V24.1426C3.39932 26.8107 5.5353 29.051 8.17063 30.6146C10.806 32.1782 13.8375 33.0039 16.9283 33Z" fill="#34A853"/>
<path d="M8 19.6976C7.23577 17.6239 7.23577 15.3761 8 13.3024V9H1.94079C0.66479 11.3255 0 13.8945 0 16.5C0 19.1055 0.66479 21.6745 1.94079 24L8 19.6976Z" fill="#FBBC04"/>
<path d="M16.8673 6.36164C19.2371 6.3243 21.5278 7.19003 23.2491 8.7735L28 4.18177C24.9806 1.44847 20.9934 -0.0488075 16.8673 0.00121416C13.7882 -0.0025769 10.7683 0.823727 8.14363 2.38823C5.51891 3.95273 3.39219 6.19411 2 8.86308L7.52145 13C8.83564 9.19156 12.5229 6.36164 16.8625 6.36164H16.8673Z" fill="#EA4335"/>
</svg>
