<svg width="33" height="33" viewBox="0 0 33 33" fill="none" xmlns="http://www.w3.org/2000/svg">
<path d="M33 16.6008C33 12.198 31.2624 7.97552 28.1695 4.86227C25.0766 1.74901 20.8817 7.0871e-06 16.5076 7.0871e-06C12.3547 -0.00385327 8.35323 1.56947 5.30247 4.40571C2.25171 7.24195 0.376264 11.1323 0.0507662 15.2996C-0.274732 19.467 0.973676 23.6046 3.54662 26.8858C6.11956 30.1671 9.82762 32.3506 13.9301 33V21.3984H9.74576V16.6008H13.9325V12.9439C13.9325 8.7842 16.3945 6.4838 20.1619 6.4838C21.9666 6.4838 23.8538 6.8087 23.8538 6.8087V10.8949H21.7734C19.7236 10.8949 19.0875 12.1755 19.0875 13.487V16.6008H23.6606L22.9302 21.3984H19.0852V33C22.9644 32.3817 26.4972 30.3903 29.0479 27.3841C31.5987 24.3779 33.0001 20.5542 33 16.6008Z" fill="white"/>
<path d="M23.0833 21.0725L23.8083 16.2248H19.2694V13.0786C19.2694 11.7534 19.9008 10.4594 21.9352 10.4594H24V6.32829C24 6.32829 22.1269 6 20.3357 6C16.5943 6 14.153 8.32437 14.153 12.5274V16.2248H10V21.0725H14.1553V32.795C15.8504 33.0683 17.5767 33.0683 19.2718 32.795V21.0725H23.0833Z" fill="#1877F2"/>
</svg>
