<svg width="25" height="22" viewBox="0 0 25 22" fill="none" xmlns="http://www.w3.org/2000/svg">
<path d="M23.4375 18.4152V20.4286C23.4375 20.8705 23.2869 21.2429 22.9858 21.5458C22.6847 21.8486 22.3185 22 21.8872 22C21.4559 22 21.0856 21.8486 20.7764 21.5458C20.4671 21.2429 20.3125 20.8705 20.3125 20.4286V18.8571H4.6875V20.4286C4.6875 20.8705 4.53695 21.2429 4.23584 21.5458C3.93473 21.8486 3.56852 22 3.13721 22C2.70589 22 2.33561 21.8486 2.02637 21.5458C1.71712 21.2429 1.5625 20.8705 1.5625 20.4286V18.4152C1.09049 18.1369 0.712077 17.7604 0.427246 17.2857C0.142415 16.811 0 16.2872 0 15.7143V11C0 10.5417 0.187174 10.0138 0.561523 9.41629C0.935872 8.81882 1.40788 8.25 1.97754 7.70982L3.125 3.14286C3.125 2.2753 3.43018 1.5346 4.04053 0.920759C4.65088 0.30692 5.38737 0 6.25 0H18.75C19.6126 0 20.3491 0.30692 20.9595 0.920759C21.5698 1.5346 21.875 2.2753 21.875 3.14286L23.0225 7.70982C23.5921 8.25 24.0641 8.81882 24.4385 9.41629C24.8128 10.0138 25 10.5417 25 11V15.7143C25 16.2872 24.8576 16.811 24.5728 17.2857C24.2879 17.7604 23.9095 18.1369 23.4375 18.4152ZM3.125 14.1551C3.125 14.5889 3.27555 14.9572 3.57666 15.26C3.87777 15.5629 4.24398 15.7143 4.67529 15.7143C5.10661 15.7143 5.47689 15.5629 5.78613 15.26C6.09538 14.9572 6.25 14.5889 6.25 14.1551C6.25 13.7214 6.09538 13.349 5.78613 13.0379C5.47689 12.7269 5.10661 12.5714 4.67529 12.5714C4.24398 12.5714 3.87777 12.7269 3.57666 13.0379C3.27555 13.349 3.125 13.7214 3.125 14.1551ZM19.5312 4.71429C19.5312 4.28869 19.3807 3.92039 19.0796 3.60938C18.7785 3.29836 18.4082 3.14286 17.9688 3.14286H7.03125C6.60807 3.14286 6.24186 3.29836 5.93262 3.60938C5.62337 3.92039 5.46875 4.28869 5.46875 4.71429L4.6875 7.85714C4.6875 8.29911 4.83805 8.6715 5.13916 8.97433C5.44027 9.27716 5.81055 9.42857 6.25 9.42857H18.75C19.1895 9.42857 19.5597 9.27716 19.8608 8.97433C20.1619 8.6715 20.3125 8.29911 20.3125 7.85714L19.5312 4.71429ZM20.3247 12.5714C19.8934 12.5714 19.5231 12.7269 19.2139 13.0379C18.9046 13.349 18.75 13.7214 18.75 14.1551C18.75 14.5889 18.9046 14.9572 19.2139 15.26C19.5231 15.5629 19.8934 15.7143 20.3247 15.7143C20.756 15.7143 21.1222 15.5629 21.4233 15.26C21.7244 14.9572 21.875 14.5889 21.875 14.1551C21.875 13.7214 21.7244 13.349 21.4233 13.0379C21.1222 12.7269 20.756 12.5714 20.3247 12.5714Z" fill="black"/>
</svg>