<svg width="22" height="16" viewBox="0 0 22 16" fill="none" xmlns="http://www.w3.org/2000/svg">
<path fill-rule="evenodd" clip-rule="evenodd" d="M21.4126 0.587312C21.5988 0.773011 21.7465 0.993615 21.8473 1.23649C21.9481 1.47936 22 1.73973 22 2.00268C22 2.26563 21.9481 2.526 21.8473 2.76887C21.7465 3.01174 21.5988 3.23235 21.4126 3.41805L9.41591 15.4127C9.23018 15.5989 9.00954 15.7466 8.76663 15.8473C8.52371 15.9481 8.2633 16 8.00031 16C7.73731 16 7.4769 15.9481 7.23399 15.8473C6.99107 15.7466 6.77043 15.5989 6.5847 15.4127L0.586362 9.41537C0.21092 9.03999 -3.95592e-09 8.53087 0 8C3.95593e-09 7.46913 0.21092 6.96001 0.586362 6.58463C0.961805 6.20925 1.47101 5.99837 2.00197 5.99837C2.53293 5.99837 3.04214 6.20925 3.41758 6.58463L8.00031 11.1706L18.5814 0.587312C18.7671 0.401142 18.9877 0.253436 19.2307 0.152655C19.4736 0.0518743 19.734 0 19.997 0C20.26 0 20.5204 0.0518743 20.7633 0.152655C21.0062 0.253436 21.2269 0.401142 21.4126 0.587312Z" fill="black"/>
</svg>