<svg width="86" height="86" viewBox="0 0 86 86" fill="none" xmlns="http://www.w3.org/2000/svg">
<path d="M60.1562 74.0209L57.7744 53.7328C57.4369 50.8592 56.1242 48.2157 54.0832 46.2995C52.0423 44.3833 49.4137 43.3263 46.6917 43.3275H38.4894C35.7687 43.3283 33.1419 44.3861 31.1025 46.3021C29.0631 48.2181 27.7515 50.8605 27.4141 53.7328L25.0286 74.0209C24.8977 75.1355 24.9912 76.267 25.3028 77.3403C25.6145 78.4135 26.1372 79.4039 26.8362 80.2458C27.5352 81.0876 28.3946 81.7616 29.3573 82.2229C30.3199 82.6843 31.3638 82.9225 32.4196 82.9217H52.7689C53.8244 82.9219 54.8679 82.6833 55.8301 82.2217C56.7923 81.7601 57.6512 81.086 58.3498 80.2443C59.0485 79.4025 59.5708 78.4123 59.8822 77.3393C60.1937 76.2663 60.287 75.1352 60.1562 74.0209V74.0209Z" stroke="white" stroke-width="6" stroke-linecap="round" stroke-linejoin="round"/>
<path d="M42.5942 27.4898C48.7602 27.4898 53.7587 22.1717 53.7587 15.6116C53.7587 9.05138 48.7602 3.73331 42.5942 3.73331C36.4281 3.73331 31.4296 9.05138 31.4296 15.6116C31.4296 22.1717 36.4281 27.4898 42.5942 27.4898Z" stroke="white" stroke-width="6"/>
<path d="M12.822 39.368C16.9327 39.368 20.265 35.8226 20.265 31.4491C20.265 27.0757 16.9327 23.5303 12.822 23.5303C8.71128 23.5303 5.37891 27.0757 5.37891 31.4491C5.37891 35.8226 8.71128 39.368 12.822 39.368Z" stroke="white" stroke-width="6"/>
<path d="M72.3664 39.368C76.4771 39.368 79.8095 35.8226 79.8095 31.4491C79.8095 27.0757 76.4771 23.5303 72.3664 23.5303C68.2557 23.5303 64.9233 27.0757 64.9233 31.4491C64.9233 35.8226 68.2557 39.368 72.3664 39.368Z" stroke="white" stroke-width="6"/>
<path d="M12.822 51.2464H11.6832C9.92133 51.2462 8.21647 51.911 6.87196 53.1225C5.52746 54.334 4.6305 56.0136 4.34067 57.8626L3.1014 65.7815C2.92355 66.916 2.98015 68.0782 3.26726 69.1871C3.55437 70.296 4.06509 71.3251 4.76391 72.2027C5.46272 73.0803 6.33285 73.7855 7.31377 74.2691C8.2947 74.7527 9.36286 75.0031 10.444 75.0029H23.9866" stroke="white" stroke-width="6" stroke-linecap="round" stroke-linejoin="round"/>
<path d="M72.3664 51.2464H73.5052C75.2671 51.2462 76.9719 51.911 78.3164 53.1225C79.661 54.334 80.5579 56.0136 80.8477 57.8626L82.087 65.7815C82.2649 66.916 82.2083 68.0782 81.9211 69.1871C81.634 70.296 81.1233 71.3251 80.4245 72.2027C79.7257 73.0803 78.8556 73.7855 77.8746 74.2691C76.8937 74.7527 75.8255 75.0031 74.7444 75.0029H61.2018" stroke="white" stroke-width="6" stroke-linecap="round" stroke-linejoin="round"/>
</svg>