<svg width="21" height="28" viewBox="0 0 21 28" fill="none" xmlns="http://www.w3.org/2000/svg">
<path d="M19.9547 7.85518L12.8725 1.22565C12.6702 1.03624 12.4678 0.941528 12.1643 0.941528H2.04691C0.934001 0.941528 0.0234375 1.7939 0.0234375 2.83568V25.5655C0.0234375 26.6073 0.934001 27.4596 2.04691 27.4596H18.2347C19.3476 27.4596 20.2582 26.6073 20.2582 25.5655V8.51813C20.2582 8.23401 20.157 8.04459 19.9547 7.85518ZM12.1643 3.21451L17.83 8.51813H12.1643V3.21451ZM18.2347 25.5655H2.04691V2.83568H10.1408V8.51813C10.1408 9.55991 11.0514 10.4123 12.1643 10.4123H18.2347V25.5655Z" fill="black"/>
<path d="M4.07031 19.883H16.2112V21.7771H4.07031V19.883Z" fill="black"/>
<path d="M4.07031 14.2006H16.2112V16.0947H4.07031V14.2006Z" fill="black"/>
</svg>