<svg width="31" height="28" viewBox="0 0 31 28" fill="none" xmlns="http://www.w3.org/2000/svg">
<path d="M0.00390625 4.625C0.00390625 3.63044 0.398994 2.67661 1.10226 1.97335C1.80552 1.27009 2.75934 0.875 3.75391 0.875H26.2539C27.2485 0.875 28.2023 1.27009 28.9056 1.97335C29.6088 2.67661 30.0039 3.63044 30.0039 4.625V23.375C30.0039 24.3696 29.6088 25.3234 28.9056 26.0266C28.2023 26.7299 27.2485 27.125 26.2539 27.125H3.75391C2.75934 27.125 1.80552 26.7299 1.10226 26.0266C0.398994 25.3234 0.00390625 24.3696 0.00390625 23.375V4.625ZM1.87891 21.5V23.375C1.87891 23.8723 2.07645 24.3492 2.42808 24.7008C2.77971 25.0525 3.25663 25.25 3.75391 25.25H26.2539C26.7512 25.25 27.2281 25.0525 27.5797 24.7008C27.9314 24.3492 28.1289 23.8723 28.1289 23.375V16.8125L21.047 13.1619C20.8712 13.0738 20.6721 13.0432 20.478 13.0745C20.2838 13.1058 20.1044 13.1974 19.9652 13.3363L13.0089 20.2925L8.02141 16.97C7.84133 16.8501 7.62534 16.7962 7.41004 16.8174C7.19475 16.8386 6.99341 16.9336 6.84016 17.0863L1.87891 21.5ZM11.2539 9.3125C11.2539 8.56658 10.9576 7.85121 10.4301 7.32376C9.9027 6.79632 9.18733 6.5 8.44141 6.5C7.69549 6.5 6.98011 6.79632 6.45267 7.32376C5.92522 7.85121 5.62891 8.56658 5.62891 9.3125C5.62891 10.0584 5.92522 10.7738 6.45267 11.3012C6.98011 11.8287 7.69549 12.125 8.44141 12.125C9.18733 12.125 9.9027 11.8287 10.4301 11.3012C10.9576 10.7738 11.2539 10.0584 11.2539 9.3125Z" fill="black"/>
</svg>