<svg id="Layer_1" data-name="Layer 1" xmlns="http://www.w3.org/2000/svg" viewBox="0 0 471.4 259.4"><defs><style>.cls-1{opacity:0.5;}.cls-2{fill:#069aba;}</style></defs><title>logo</title><g class="cls-1"><path class="cls-2" d="M318.36,120.3a141.76,141.76,0,0,1,54.49,10.91c19.37,8.06,38.66,16.28,52.15,34.68,5.23,7.12,11.25,13.5,15.68,24.22a1.94,1.94,0,0,1-2.66,2.47c-32.94-16.35-63.85-29.37-99.6-29-28.42.34-51.93,9.07-72.92,26.23-41.39,33.84-87.41,51.32-141.74,46.41-35.31-3.18-76.87-28.59-90.41-57.6a2,2,0,0,1,2.5-2.63c37.06,15.3,73.29,33.24,115.26,21.4,16.95-4.77,32.82-12.11,46.51-22.76,15.44-12,30.95-23.85,47.49-34a140.5,140.5,0,0,1,73.25-20.43Z" transform="translate(-14.3 -120.3)"/><path class="cls-2" d="M482.09,277.66a1.94,1.94,0,0,1-3,2c-31.59-23.21-65.19-37.59-104.38-38.25-35-.59-65.9,11.56-95.79,28.23-42.37,23.63-84.61,43.36-136,44.91C89.72,316.14,27.15,267,14.35,209.67a2,2,0,0,1,2.88-2.1c15.4,8.76,25.76,22,40.43,29.57,69.43,36,133.08,26.51,195.23-17.66,47.31-33.62,100.7-44.09,156.29-26.32C449.38,206,472.76,236.49,482.09,277.66Z" transform="translate(-14.3 -120.3)"/><path class="cls-2" d="M70.64,315.43a1.93,1.93,0,0,1,2.82-1.53c29.46,15.1,58.19,20.55,89.07,22.12,40.52,2.06,71.85-13.66,103.31-35.95,64.13-45.43,128.42-50.44,190.18-5,3.65,2.69,8.13,4.72,10.83,8.15,5.66,7.16,10.72,14.79,18.49,26.05a1.93,1.93,0,0,1-2.4,2.86c-21.67-9.9-38-19.2-56-24.53-52.27-15.45-96,2.66-133.4,36.53-62,56.08-160.27,39.05-212.22-4.09C75,334.76,69.65,327.92,70.64,315.43Z" transform="translate(-14.3 -120.3)"/></g></svg>