<svg width="36" height="27" viewBox="0 0 36 27" fill="none" xmlns="http://www.w3.org/2000/svg">
<path fill-rule="evenodd" clip-rule="evenodd" d="M35.6796 7.33036C35.7812 7.43482 35.8617 7.55891 35.9167 7.69552C35.9717 7.83214 36 7.9786 36 8.12651C36 8.27442 35.9717 8.42087 35.9167 8.55749C35.8617 8.69411 35.7812 8.8182 35.6796 8.92265L29.136 15.6696C29.0346 15.7744 28.9143 15.8574 28.7818 15.9141C28.6493 15.9708 28.5073 16 28.3638 16C28.2204 16 28.0783 15.9708 27.9458 15.9141C27.8133 15.8574 27.693 15.7744 27.5917 15.6696L24.3198 12.2961C24.115 12.085 24 11.7986 24 11.5C24 11.2014 24.115 10.915 24.3198 10.7039C24.5246 10.4927 24.8024 10.3741 25.092 10.3741C25.3816 10.3741 25.6593 10.4927 25.8641 10.7039L28.3638 13.2835L34.1353 7.33036C34.2366 7.22564 34.357 7.14256 34.4894 7.08587C34.6219 7.02918 34.764 7 34.9074 7C35.0509 7 35.1929 7.02918 35.3254 7.08587C35.4579 7.14256 35.5783 7.22564 35.6796 7.33036Z" fill="black"/>
<path d="M2.25 27C2.25 27 0 27 0 24.75C0 22.5 2.25 15.75 13.5 15.75C24.75 15.75 27 22.5 27 24.75C27 27 24.75 27 24.75 27H2.25ZM13.5 13.5C15.2902 13.5 17.0071 12.7888 18.273 11.523C19.5388 10.2571 20.25 8.54021 20.25 6.75C20.25 4.95979 19.5388 3.2429 18.273 1.97703C17.0071 0.711159 15.2902 0 13.5 0C11.7098 0 9.9929 0.711159 8.72703 1.97703C7.46116 3.2429 6.75 4.95979 6.75 6.75C6.75 8.54021 7.46116 10.2571 8.72703 11.523C9.9929 12.7888 11.7098 13.5 13.5 13.5Z" fill="black"/>
</svg>