<svg width="80" height="80" viewBox="0 0 80 80" fill="none" xmlns="http://www.w3.org/2000/svg">
<path d="M40.1394 40.3275C45.3899 40.3275 50.4254 38.2418 54.1381 34.5291C57.8507 30.8164 59.9365 25.7809 59.9365 20.5304C59.9365 15.2799 57.8507 10.2444 54.1381 6.53175C50.4254 2.81907 45.3899 0.733307 40.1394 0.733307C34.8889 0.733307 29.8534 2.81907 26.1407 6.53175C22.428 10.2444 20.3423 15.2799 20.3423 20.5304C20.3423 25.7809 22.428 30.8164 26.1407 34.5291C29.8534 38.2418 34.8889 40.3275 40.1394 40.3275ZM53.3375 20.5304C53.3375 24.0308 51.9469 27.3877 49.4718 29.8629C46.9967 32.338 43.6397 33.7285 40.1394 33.7285C36.639 33.7285 33.2821 32.338 30.8069 29.8629C28.3318 27.3877 26.9413 24.0308 26.9413 20.5304C26.9413 17.0301 28.3318 13.6731 30.8069 11.198C33.2821 8.72285 36.639 7.33234 40.1394 7.33234C43.6397 7.33234 46.9967 8.72285 49.4718 11.198C51.9469 13.6731 53.3375 17.0301 53.3375 20.5304ZM79.7336 73.3227C79.7336 79.9217 73.1346 79.9217 73.1346 79.9217H7.1442C7.1442 79.9217 0.545166 79.9217 0.545166 73.3227C0.545166 66.7237 7.1442 46.9266 40.1394 46.9266C73.1346 46.9266 79.7336 66.7237 79.7336 73.3227ZM73.1346 73.2963C73.128 71.6729 72.1183 66.7896 67.6442 62.3155C63.3416 58.0129 55.2446 53.5256 40.1394 53.5256C25.0276 53.5256 16.9372 58.0129 12.6346 62.3155C8.16045 66.7896 7.1574 71.6729 7.1442 73.2963H73.1346Z" fill="white"/>
</svg>