<svg width="40" height="36" viewBox="0 0 40 36" fill="none" xmlns="http://www.w3.org/2000/svg">
<path d="M20 0C15.1674 0 11.25 3.96633 11.25 8.85938C11.25 12.8152 16.9688 20.025 19.1597 22.642C19.6035 23.1722 20.3972 23.1722 20.8403 22.642C23.0313 20.025 28.75 12.8152 28.75 8.85938C28.75 3.96633 24.8326 0 20 0ZM20 11.8125C18.3889 11.8125 17.0833 10.4906 17.0833 8.85938C17.0833 7.22813 18.3889 5.90625 20 5.90625C21.6111 5.90625 22.9167 7.22813 22.9167 8.85938C22.9167 10.4906 21.6111 11.8125 20 11.8125ZM1.39722 15.184C0.984846 15.351 0.631341 15.6392 0.382298 16.0116C0.133256 16.3839 9.87644e-05 16.8233 0 17.273L0 34.8736C0 35.6695 0.79375 36.2137 1.52361 35.9184L11.1111 31.5V15.1116C10.4972 13.988 9.99514 12.8939 9.63542 11.8477L1.39722 15.184ZM20 25.2893C19.0229 25.2893 18.0986 24.8548 17.4646 24.0968C16.0993 22.4655 14.6472 20.6079 13.3333 18.7024V31.4993L26.6667 35.9993V18.7031C25.3528 20.6079 23.9014 22.4662 22.5354 24.0975C21.9014 24.8548 20.9771 25.2893 20 25.2893ZM38.4764 11.3316L28.8889 15.75V36L38.6028 32.066C39.0152 31.8991 39.3688 31.6109 39.6178 31.2385C39.8669 30.8661 40 30.4267 40 29.977V12.3764C40 11.5805 39.2063 11.0363 38.4764 11.3316Z" fill="black"/>
</svg>