<svg width="20" height="15" viewBox="0 0 20 15" fill="none" xmlns="http://www.w3.org/2000/svg">
<path d="M18.9916 0.00658083C18.9064 -0.00219361 18.8206 -0.00219361 18.7355 0.00658083H1.24321C1.1311 0.00830827 1.01973 0.0251184 0.912109 0.0565586L9.93936 9.04632L18.9916 0.00658083Z" fill="white"/>
<path d="M19.9162 0.875031L10.8202 9.93352C10.5861 10.1662 10.2694 10.2968 9.93935 10.2968C9.60926 10.2968 9.29258 10.1662 9.05849 9.93352L0.0437307 0.94375C0.0160175 1.04561 0.00132359 1.15056 0 1.25611V13.7506C0 14.082 0.131638 14.3998 0.365954 14.6341C0.600271 14.8684 0.918073 15 1.24945 15H18.7417C19.0731 15 19.3909 14.8684 19.6252 14.6341C19.8595 14.3998 19.9911 14.082 19.9911 13.7506V1.25611C19.9862 1.12595 19.9609 0.997373 19.9162 0.875031ZM2.10532 13.7506H1.23695V12.8572L5.77869 8.35297L6.65955 9.23383L2.10532 13.7506ZM18.7292 13.7506H17.8546L13.3004 9.23383L14.1812 8.35297L18.723 12.8572L18.7292 13.7506Z" fill="white"/>
</svg>