<svg width="17" height="17" viewBox="0 0 17 17" fill="none" xmlns="http://www.w3.org/2000/svg">
<path d="M11.3341 12.0818L12.7979 10.6173C12.9951 10.4225 13.2445 10.2892 13.516 10.2335C13.7875 10.1778 14.0692 10.2021 14.3271 10.3035L16.1112 11.0161C16.3718 11.122 16.5953 11.3026 16.7535 11.5353C16.9117 11.768 16.9974 12.0423 17 12.3237V15.5926C16.9985 15.784 16.9583 15.9731 16.8818 16.1485C16.8053 16.324 16.694 16.4821 16.5548 16.6135C16.4156 16.7448 16.2513 16.8466 16.0717 16.9127C15.8922 16.9788 15.7011 17.0079 15.51 16.9982C3.00832 16.2202 0.485766 5.62903 0.00870312 1.57562C-0.0134425 1.37657 0.00679136 1.17509 0.0680735 0.984422C0.129356 0.793756 0.230297 0.618231 0.364257 0.469395C0.498217 0.320559 0.662161 0.201785 0.845301 0.120886C1.02844 0.0399873 1.22663 -0.0012024 1.42682 2.67191e-05H4.58328C4.86495 0.000860796 5.13993 0.0859768 5.37285 0.244427C5.60577 0.402877 5.78598 0.627415 5.89031 0.889161L6.60263 2.67397C6.70736 2.93094 6.73408 3.2131 6.67945 3.48518C6.62483 3.75726 6.49128 4.00721 6.29548 4.2038L4.83162 5.66825C4.83162 5.66825 5.67465 11.3757 11.3341 12.0818Z" fill="white"/>
</svg>