<svg width="17" height="17" viewBox="0 0 17 17" fill="none" xmlns="http://www.w3.org/2000/svg">
<path d="M11.9378 8.5L15.2905 5.15267C15.7448 4.69914 16 4.08402 16 3.44263C16 2.80124 15.7448 2.18611 15.2905 1.73258C14.8363 1.27905 14.2201 1.02426 13.5777 1.02426C12.9353 1.02426 12.3192 1.27905 11.8649 1.73258L8.48785 5.05565L5.13511 1.70832C4.68084 1.25479 4.06472 1 3.42229 1C2.77986 1 2.16374 1.25479 1.70947 1.70832C1.2552 2.16186 1 2.77698 1 3.41837C1 4.05976 1.2552 4.67489 1.70947 5.12842L5.06222 8.47574L1.70947 11.8231C1.48454 12.0476 1.30612 12.3142 1.18439 12.6076C1.06265 12.9011 1 13.2155 1 13.5331C1 13.8507 1.06265 14.1652 1.18439 14.4586C1.30612 14.752 1.48454 15.0186 1.70947 15.2432C2.16374 15.6967 2.77986 15.9515 3.42229 15.9515C3.74039 15.9515 4.05537 15.8889 4.34926 15.7674C4.64314 15.6459 4.91018 15.4677 5.13511 15.2432L8.48785 11.9444L11.8406 15.2917C12.0655 15.5162 12.3326 15.6944 12.6264 15.8159C12.9203 15.9374 13.2353 16 13.5534 16C13.8715 16 14.1865 15.9374 14.4804 15.8159C14.7743 15.6944 15.0413 15.5162 15.2662 15.2917C15.4912 15.0671 15.6696 14.8005 15.7913 14.5071C15.9131 14.2137 15.9757 13.8992 15.9757 13.5816C15.9757 13.264 15.9131 12.9496 15.7913 12.6562C15.6696 12.3627 15.4912 12.0961 15.2662 11.8716L11.9378 8.5Z" fill="black" stroke="white"/>
</svg>