<svg width="133" height="21" viewBox="0 0 133 21" fill="none" xmlns="http://www.w3.org/2000/svg">
<path d="M10.5 0L12.8574 7.25532H20.4861L14.3143 11.7394L16.6717 18.9947L10.5 14.5106L4.32825 18.9947L6.68565 11.7394L0.513906 7.25532H8.1426L10.5 0Z" fill="#F4BC61"/>
<path d="M38.5 0L40.8574 7.25532H48.4861L42.3143 11.7394L44.6717 18.9947L38.5 14.5106L32.3283 18.9947L34.6857 11.7394L28.5139 7.25532H36.1426L38.5 0Z" fill="#F4BC61"/>
<path d="M66.5 0L68.8574 7.25532H76.4861L70.3143 11.7394L72.6717 18.9947L66.5 14.5106L60.3283 18.9947L62.6857 11.7394L56.5139 7.25532H64.1426L66.5 0Z" fill="#F4BC61"/>
<path d="M94.5 0L96.8574 7.25532H104.486L98.3143 11.7394L100.672 18.9947L94.5 14.5106L88.3283 18.9947L90.6857 11.7394L84.5139 7.25532H92.1426L94.5 0Z" fill="#F4BC61"/>
<path d="M122.5 0L124.857 7.25532H132.486L126.314 11.7394L128.672 18.9947L122.5 14.5106L116.328 18.9947L118.686 11.7394L112.514 7.25532H120.143L122.5 0Z" fill="#F4BC61"/>
</svg>
