<svg width="20" height="20" viewBox="0 0 20 20" fill="none" xmlns="http://www.w3.org/2000/svg">
<path d="M10 1.66675C6.77502 1.66675 4.16669 4.27508 4.16669 7.50008C4.16669 11.8751 10 18.3334 10 18.3334C10 18.3334 15.8334 11.8751 15.8334 7.50008C15.8334 4.27508 13.225 1.66675 10 1.66675ZM10 9.58342C9.44749 9.58342 8.91758 9.36392 8.52688 8.97322C8.13618 8.58252 7.91669 8.05262 7.91669 7.50008C7.91669 6.94755 8.13618 6.41764 8.52688 6.02694C8.91758 5.63624 9.44749 5.41675 10 5.41675C10.5526 5.41675 11.0825 5.63624 11.4732 6.02694C11.8639 6.41764 12.0834 6.94755 12.0834 7.50008C12.0834 8.05262 11.8639 8.58252 11.4732 8.97322C11.0825 9.36392 10.5526 9.58342 10 9.58342Z" fill="black"/>
</svg>
