<svg width="20" height="20" viewBox="0 0 20 20" fill="none" xmlns="http://www.w3.org/2000/svg">
<path d="M1 16.75V6.06252C1 4.71986 1.53337 3.43219 2.48277 2.48279C3.43217 1.53338 4.71984 1.00002 6.0625 1.00002H13.9375C14.6023 1.00002 15.2606 1.13096 15.8748 1.38538C16.489 1.63979 17.0471 2.01269 17.5172 2.48279C17.9873 2.95288 18.3602 3.51097 18.6146 4.12518C18.8691 4.73939 19 5.3977 19 6.06252V13.9375C19 14.6023 18.8691 15.2606 18.6146 15.8748C18.3602 16.4891 17.9873 17.0471 17.5172 17.5172C17.0471 17.9873 16.489 18.3602 15.8748 18.6147C15.2606 18.8691 14.6023 19 13.9375 19H3.25C2.65326 19 2.08097 18.763 1.65901 18.341C1.23705 17.919 1 17.3468 1 16.75V16.75Z" stroke="white" stroke-width="2" stroke-linecap="round" stroke-linejoin="round"/>
<path d="M5.98486 9.7408H9.92236C10.5191 9.7408 11.0914 9.97785 11.5134 10.3998C11.9353 10.8218 12.1724 11.3941 12.1724 11.9908C12.1724 12.5875 11.9353 13.1598 11.5134 13.5818C11.0914 14.0037 10.5191 14.2408 9.92236 14.2408H5.98486V6.3658C5.98486 6.06743 6.10339 5.78128 6.31437 5.5703C6.52535 5.35933 6.81149 5.2408 7.10986 5.2408H8.79736C9.3941 5.2408 9.9664 5.47785 10.3884 5.89981C10.8103 6.32177 11.0474 6.89406 11.0474 7.4908C11.0474 8.08754 10.8103 8.65983 10.3884 9.08179C9.9664 9.50375 9.3941 9.7408 8.79736 9.7408H7.10986M14.9849 14.2408H14.9961" stroke="white" stroke-width="2" stroke-linecap="round" stroke-linejoin="round"/>
</svg>
