<svg width="24" height="24" viewBox="0 0 24 24" fill="none" xmlns="http://www.w3.org/2000/svg">
<g clip-path="url(#clip0_405_256)">
<path d="M21.9001 18.7533L21.6734 18.5533C21.0304 17.9804 20.4676 17.3234 20.0001 16.6C19.4896 15.6017 19.1836 14.5115 19.1001 13.3933V10.1C19.1045 8.34373 18.4675 6.6463 17.3086 5.32663C16.1498 4.00697 14.5489 3.15589 12.8068 2.93332V2.07332C12.8068 1.83728 12.713 1.6109 12.5461 1.44399C12.3792 1.27709 12.1528 1.18332 11.9168 1.18332C11.6807 1.18332 11.4544 1.27709 11.2875 1.44399C11.1205 1.6109 11.0268 1.83728 11.0268 2.07332V2.94665C9.30029 3.18527 7.71876 4.04149 6.57513 5.35672C5.4315 6.67196 4.80327 8.35708 4.80678 10.1V13.3933C4.72328 14.5115 4.4173 15.6017 3.90678 16.6C3.44737 17.3216 2.89358 17.9785 2.26011 18.5533L2.03345 18.7533V20.6333H21.9001V18.7533Z" fill="#656575"/>
<path d="M10.2134 21.3333C10.2718 21.7559 10.4812 22.1431 10.8029 22.4233C11.1246 22.7035 11.5368 22.8579 11.9634 22.8579C12.39 22.8579 12.8022 22.7035 13.1239 22.4233C13.4455 22.1431 13.6549 21.7559 13.7134 21.3333H10.2134Z" fill="#656575"/>
</g>
<defs>
<clipPath id="clip0_405_256">
<rect width="24" height="24" fill="white"/>
</clipPath>
</defs>
</svg>
