<svg width="28" height="21" viewBox="0 0 28 21" fill="none" xmlns="http://www.w3.org/2000/svg">
<path opacity="1" d="M0 21.0339V18.9984C0.71683 18.9476 1.40282 18.6953 1.974 18.2724C2.68968 17.8025 3.54789 17.5802 4.41 17.6414C5.34916 17.5815 6.28289 17.8197 7.07 18.3199C7.68026 18.7768 8.43409 19.0164 9.205 18.9984C9.99717 19.0147 10.7726 18.7761 11.41 18.3199C12.1767 17.8321 13.0841 17.5943 14 17.6414C14.9328 17.5795 15.8605 17.818 16.639 18.3199C17.2665 18.7847 18.0407 19.0245 18.83 18.9984C19.5897 19.013 20.3313 18.7734 20.93 18.3199C21.7171 17.8197 22.6508 17.5815 23.59 17.6414C24.446 17.5691 25.302 17.7795 26.019 18.2384C26.5895 18.6723 27.2777 18.9363 28 18.9984V21.0339C27.1648 21.0478 26.3457 20.8108 25.655 20.3554C25.046 19.921 24.3112 19.6835 23.555 19.6769C22.7729 19.656 22.0071 19.8955 21.385 20.3554C20.6214 20.85 19.7116 21.0883 18.795 21.0339C17.8737 21.0913 16.9585 20.8529 16.191 20.3554C15.5635 19.8905 14.7893 19.6508 14 19.6769C13.2225 19.6581 12.4618 19.8975 11.844 20.3554C11.079 20.8581 10.1619 21.097 9.24 21.0339C8.31599 21.0959 7.39708 20.8572 6.629 20.3554C6.00342 19.892 5.23191 19.6524 4.445 19.6769C3.69969 19.6842 2.97624 19.9219 2.38 20.3554C1.68227 20.8231 0.847876 21.061 0 21.0339ZM5.25 15.6058C4.7465 15.6084 4.24728 15.5162 3.78 15.3344C3.30727 15.1488 2.87854 14.8718 2.52 14.5202L0.84 12.8918L2.31 11.4669L3.99 13.0614C4.15843 13.2307 4.36095 13.3646 4.585 13.4549C4.80894 13.5351 5.04631 13.5742 5.285 13.5703H7.385V7.2601L5.285 8.75283L3.99 7.12439L14 0L24.01 7.12439L22.785 8.82068L20.685 7.29402V13.5703H22.785C23.0238 13.5762 23.2616 13.537 23.485 13.4549C23.7038 13.3626 23.9013 13.2288 24.066 13.0614L25.746 11.4669L27.16 12.8918L25.48 14.5202C25.1215 14.8718 24.6927 15.1488 24.22 15.3344C23.7527 15.5162 23.2535 15.6084 22.75 15.6058H5.25ZM9.45 13.5703H12.95V10.8562H15.05V13.5703H18.55V5.76737L14 2.54443L9.45 5.76737V13.5703Z" fill="white"/>
</svg>
