<svg width="24" height="24" viewBox="0 0 24 24" fill="none" xmlns="http://www.w3.org/2000/svg">
<path d="M15.5559 7.64024C15.5559 7.54033 15.4741 7.45858 15.3742 7.45858H14.1367C14.0686 7.45858 14.005 7.49719 13.9755 7.5585L12.0522 11.3915H11.9773L10.054 7.5585C10.0389 7.52861 10.0159 7.50346 9.98742 7.48583C9.95897 7.4682 9.92621 7.45877 9.89274 7.45858H8.62795C8.59843 7.45858 8.56891 7.4654 8.54167 7.48129C8.45311 7.52898 8.42132 7.64024 8.469 7.72653L10.8283 12.0772H9.53397C9.43405 12.0772 9.35231 12.159 9.35231 12.2589V12.8742C9.35231 12.9741 9.43405 13.0559 9.53397 13.0559H11.2597V13.9415H9.53397C9.43405 13.9415 9.35231 14.0232 9.35231 14.1231V14.7385C9.35231 14.8384 9.43405 14.9201 9.53397 14.9201H11.2597V16.3598C11.2597 16.4597 11.3415 16.5414 11.4414 16.5414H12.5744C12.6744 16.5414 12.7561 16.4597 12.7561 16.3598V14.9179H14.4887C14.5886 14.9179 14.6703 14.8361 14.6703 14.7362V14.1209C14.6703 14.0209 14.5886 13.9392 14.4887 13.9392H12.7561V13.0536H14.4887C14.5886 13.0536 14.6703 12.9719 14.6703 12.872V12.2566C14.6703 12.1567 14.5886 12.0749 14.4887 12.0749H13.1807L15.5355 7.72426C15.5468 7.69928 15.5559 7.66976 15.5559 7.64024ZM3.95937 11.8229C4.00202 9.75339 4.84429 7.78077 6.30955 6.31869C7.04754 5.58071 7.90587 4.9994 8.86184 4.59522C9.85187 4.17741 10.9032 3.96396 11.9863 3.96396C13.0717 3.96396 14.1231 4.17513 15.1108 4.59522C16.0668 4.9994 16.9251 5.58071 17.6631 6.31869C17.8902 6.54576 18.1014 6.78418 18.2966 7.03169L17.1613 7.91954C17.1342 7.94046 17.1136 7.96859 17.1019 8.0007C17.0901 8.0328 17.0876 8.06758 17.0948 8.10103C17.1019 8.13447 17.1183 8.16523 17.1421 8.18976C17.1659 8.2143 17.1962 8.23161 17.2294 8.23971L20.7899 9.10939C20.9034 9.13664 21.0147 9.05035 21.0147 8.93455L21.0329 5.26735C21.0329 5.11521 20.858 5.02892 20.7399 5.12429L19.6545 5.97354C17.8743 3.69601 15.1018 2.23595 11.9886 2.23595C6.66379 2.23595 2.33354 6.50716 2.2359 11.8138C2.23529 11.838 2.23954 11.8622 2.2484 11.8847C2.25726 11.9073 2.27054 11.9279 2.28747 11.9452C2.3044 11.9626 2.32463 11.9763 2.34697 11.9858C2.36931 11.9952 2.39331 12 2.41755 12H3.77998C3.87762 12 3.9571 11.9205 3.95937 11.8229ZM21.5824 12H20.2199C20.1223 12 20.0406 12.0795 20.0383 12.1771C19.9956 14.2466 19.1534 16.2193 17.6881 17.6813C16.9569 18.4156 16.0901 19.0009 15.1358 19.4048C14.1458 19.8226 13.0944 20.0361 12.0113 20.0361C10.9282 20.0361 9.87457 19.8249 8.88681 19.4048C7.93253 19.0009 7.06574 18.4156 6.33453 17.6813C6.10746 17.4543 5.89629 17.2158 5.701 16.9683L6.83409 16.0805C6.86114 16.0596 6.88173 16.0314 6.8935 15.9993C6.90527 15.9672 6.90773 15.9324 6.90062 15.899C6.8935 15.8655 6.87709 15.8348 6.85327 15.8103C6.82945 15.7857 6.79919 15.7684 6.76597 15.7603L3.20549 14.8906C3.09196 14.8634 2.98069 14.9497 2.98069 15.0655L2.96252 18.7372C2.96252 18.8894 3.13737 18.9756 3.25545 18.8803L4.34085 18.031C6.12563 20.304 8.89817 21.7641 12.0113 21.7641C17.3361 21.7641 21.6664 17.4929 21.764 12.1862C21.7646 12.162 21.7604 12.1379 21.7515 12.1153C21.7427 12.0927 21.7294 12.0722 21.7125 12.0548C21.6955 12.0375 21.6753 12.0237 21.6529 12.0143C21.6306 12.0048 21.6066 12 21.5824 12Z" fill="white"/>
</svg>
