<svg width="21" height="15" viewBox="0 0 21 15" fill="none" xmlns="http://www.w3.org/2000/svg">
<path d="M-6.46808e-05 14.9998V12.7292C-0.00614471 12.1875 0.142385 11.6555 0.427537 11.1978C0.710922 10.7396 1.1254 10.3806 1.61532 10.1689C2.6263 9.70519 3.67564 9.33337 4.75107 9.05775C5.68476 8.83058 6.6417 8.71706 7.60174 8.71958C8.56185 8.716 9.51891 8.82954 10.4524 9.05775C11.5195 9.33572 12.5607 9.70749 13.5644 10.1689C14.0568 10.3828 14.4752 10.741 14.7664 11.1978C15.0567 11.6537 15.2087 12.1862 15.2036 12.7292V14.9998H-6.46808e-05ZM16.6289 14.9998V12.7292C16.6686 11.8322 16.3998 10.9491 15.8687 10.2317C15.3318 9.55494 14.6491 9.01279 13.8732 8.64712C14.9135 8.76776 15.9451 8.95656 16.9615 9.21234C17.7752 9.40658 18.5643 9.6951 19.3133 10.0722C19.8053 10.3492 20.228 10.7377 20.5486 11.2075C20.8569 11.6531 21.0228 12.1844 21.0237 12.7292V14.9998H16.6289ZM7.60174 7.24615C7.12823 7.2674 6.65556 7.18822 6.21377 7.01366C5.77199 6.8391 5.37076 6.57296 5.03562 6.23219C4.70047 5.89141 4.43873 5.48345 4.26705 5.03425C4.09537 4.58504 4.0175 4.10443 4.0384 3.62296C4.0175 3.1415 4.09537 2.66089 4.26705 2.21168C4.43873 1.76248 4.70047 1.35452 5.03562 1.01374C5.37076 0.672967 5.77199 0.406835 6.21377 0.23227C6.65556 0.0577055 7.12823 -0.0214708 7.60174 -0.000223531C8.07525 -0.0214708 8.54793 0.0577055 8.98972 0.23227C9.4315 0.406835 9.83272 0.672967 10.1679 1.01374C10.503 1.35452 10.7648 1.76248 10.9364 2.21168C11.1081 2.66089 11.186 3.1415 11.1651 3.62296C11.186 4.10443 11.1081 4.58504 10.9364 5.03425C10.7648 5.48345 10.503 5.89141 10.1679 6.23219C9.83272 6.57296 9.4315 6.8391 8.98972 7.01366C8.54793 7.18822 8.07525 7.2674 7.60174 7.24615ZM16.1538 3.62296C16.1747 4.10443 16.0968 4.58504 15.9251 5.03425C15.7534 5.48345 15.4917 5.89141 15.1566 6.23219C14.8214 6.57296 14.4202 6.8391 13.9784 7.01366C13.5366 7.18822 13.0639 7.2674 12.5904 7.24615C12.3968 7.24581 12.2032 7.23452 12.0108 7.21234C11.812 7.18767 11.6161 7.14234 11.4264 7.07707C11.8202 6.65203 12.117 6.14402 12.2959 5.58915C12.499 4.95451 12.5985 4.29032 12.5904 3.62296C12.6026 2.96639 12.503 2.31261 12.2959 1.6906C12.093 1.13687 11.799 0.622278 11.4264 0.168859C11.6189 0.117879 11.814 0.0775622 12.0108 0.0480856C12.2025 0.0167442 12.3963 0.000592581 12.5904 -0.000223531C13.0639 -0.0214708 13.5366 0.0577055 13.9784 0.23227C14.4202 0.406835 14.8214 0.672967 15.1566 1.01374C15.4917 1.35452 15.7534 1.76248 15.9251 2.21168C16.0968 2.66089 16.1747 3.1415 16.1538 3.62296ZM1.42527 13.5505H13.7782V12.7292C13.7752 12.4625 13.6959 12.2023 13.5502 11.9805C13.422 11.7561 13.2275 11.5785 12.9943 11.4732C12.0707 11.0352 11.1082 10.6874 10.1198 10.4346C9.29278 10.2512 8.44821 10.1621 7.60174 10.1689C6.75216 10.1625 5.90448 10.2516 5.07414 10.4346C4.08063 10.6855 3.11325 11.0333 2.18546 11.4732C1.95411 11.5777 1.76238 11.7557 1.63908 11.9805C1.50187 12.2055 1.42793 12.4645 1.42527 12.7292V13.5505ZM7.60174 5.79688C7.88519 5.807 8.16766 5.75769 8.43156 5.65203C8.69546 5.54636 8.93514 5.38659 9.13569 5.18267C9.33625 4.97875 9.49337 4.73504 9.59729 4.46671C9.70122 4.19838 9.74971 3.91117 9.73975 3.62296C9.74895 3.33553 9.70016 3.04922 9.59638 2.78169C9.49261 2.51416 9.33605 2.27108 9.13636 2.06741C8.93524 1.86382 8.69546 1.704 8.43162 1.59769C8.16779 1.49138 7.88543 1.44081 7.60174 1.44905C7.3183 1.43893 7.03583 1.48824 6.77193 1.5939C6.50803 1.69957 6.26835 1.85934 6.0678 2.06326C5.86724 2.26718 5.71012 2.51089 5.6062 2.77922C5.50227 3.04755 5.45378 3.33476 5.46374 3.62296C5.45378 3.91117 5.50227 4.19838 5.6062 4.46671C5.71012 4.73504 5.86724 4.97875 6.0678 5.18267C6.26835 5.38659 6.50803 5.54636 6.77193 5.65203C7.03583 5.75769 7.3183 5.807 7.60174 5.79688Z" fill="white"/>
</svg>
