<svg width="64" height="40" viewBox="0 0 64 40" fill="none" xmlns="http://www.w3.org/2000/svg">
<g clip-path="url(#clip0_303_908)">
<path d="M63.9998 19.7768C63.9998 30.709 55.1552 39.5537 44.223 39.5537C39.6085 39.5537 35.3784 37.9605 32.0273 35.3236C36.6419 31.6979 39.5535 26.0944 39.5535 19.7768C39.5535 13.4592 36.587 7.8558 32.0273 4.23005C35.3784 1.59314 39.6085 0 44.223 0C55.1552 0 63.9998 8.89957 63.9998 19.7768Z" fill="#F79E1B"/>
<path d="M32.0275 4.2301C32.0275 4.23011 32.0275 4.2301 32.0275 4.2301C36.5871 7.85585 39.5536 13.4593 39.5536 19.7769C39.5536 26.0945 36.642 31.6979 32.0274 35.3237L31.9723 35.3237C27.4127 31.7529 24.4463 26.0945 24.4463 19.777C24.4463 13.4594 27.4128 7.85598 31.9725 4.23022C31.9724 4.23018 31.9725 4.23026 31.9725 4.23022L32.0275 4.2301Z" fill="#FF5F00"/>
<path d="M24.4464 19.7769C24.4464 13.4594 27.4129 7.85592 31.9725 4.23017C28.6215 1.59326 24.3914 0.00012207 19.7768 0.00012207C8.84464 0.00012207 0 8.84476 0 19.7769C0 30.7091 8.84464 39.5538 19.7768 39.5538C24.3914 39.5538 28.6215 37.9607 31.9725 35.3237C27.4129 31.7529 24.4464 26.0945 24.4464 19.7769Z" fill="#EB001B"/>
</g>
<defs>
<clipPath id="clip0_303_908">
<rect width="64" height="39.5537" fill="white"/>
</clipPath>
</defs>
</svg>
