<svg width="74" height="24" viewBox="0 0 74 24" fill="none" xmlns="http://www.w3.org/2000/svg">
<g clip-path="url(#clip0_303_906)">
<path d="M53.7973 0.987013C52.6149 0.517928 50.7395 0 48.4207 0C42.5009 0 38.3322 3.15674 38.3066 7.66992C38.2575 10.9997 41.2913 12.8492 43.5603 13.9595C45.8795 15.094 46.6679 15.8345 46.6679 16.8458C46.6443 18.3989 44.7939 19.1148 43.068 19.1148C40.6747 19.1148 39.3923 18.7457 37.4435 17.8816L36.6542 17.5112L35.8153 22.7154C37.2213 23.3559 39.8116 23.9243 42.5009 23.9492C48.7907 23.9492 52.8857 20.8413 52.9342 16.0318C52.9581 13.3927 51.3561 11.3705 47.9024 9.71803C45.8058 8.65726 44.5218 7.94199 44.5218 6.85664C44.5464 5.86996 45.6078 4.85934 47.9745 4.85934C49.9233 4.80984 51.3552 5.27827 52.4398 5.74703L52.982 5.99321L53.7973 0.987013Z" fill="url(#paint0_linear_303_906)"/>
<path d="M32.0666 23.6037H26.0721L29.8215 0.420242H35.8157L32.0666 23.6037Z" fill="url(#paint1_linear_303_906)"/>
<path fill-rule="evenodd" clip-rule="evenodd" d="M69.1639 0.420242H64.5272C63.0973 0.420242 62.011 0.839173 61.3941 2.34378L52.49 23.6034H58.7798C58.7798 23.6034 59.8154 20.742 60.0379 20.1257H67.7344C67.9065 20.9397 68.4496 23.6034 68.4496 23.6034H74L69.1639 0.420242ZM61.7645 15.3906C62.2581 14.0588 64.1577 8.90409 64.1577 8.90409C64.1478 8.92393 64.225 8.70977 64.3402 8.39042L64.3416 8.38652L64.3425 8.38395C64.5146 7.90694 64.77 7.19892 64.9464 6.68454L65.3654 8.68217C65.3654 8.68217 66.5005 14.2315 66.747 15.3906H61.7645Z" fill="url(#paint2_linear_303_906)"/>
<path d="M21.0652 0.420242L15.1946 16.2292L14.5531 13.0229L14.5525 13.0209L12.4565 2.36903C12.1113 0.888343 11.0505 0.469084 9.74326 0.420242H0.098668L0 0.888671C2.35228 1.49019 4.45618 2.35699 6.29963 3.43474L11.6425 23.5792H17.9816L27.4039 0.420242H21.0652Z" fill="url(#paint3_linear_303_906)"/>
</g>
<defs>
<linearGradient id="paint0_linear_303_906" x1="-4.75714e-08" y1="12.025" x2="74" y2="12.025" gradientUnits="userSpaceOnUse">
<stop stop-color="#222357"/>
<stop offset="1" stop-color="#254AA5"/>
</linearGradient>
<linearGradient id="paint1_linear_303_906" x1="-4.75714e-08" y1="12.025" x2="74" y2="12.025" gradientUnits="userSpaceOnUse">
<stop stop-color="#222357"/>
<stop offset="1" stop-color="#254AA5"/>
</linearGradient>
<linearGradient id="paint2_linear_303_906" x1="-4.75714e-08" y1="12.025" x2="74" y2="12.025" gradientUnits="userSpaceOnUse">
<stop stop-color="#222357"/>
<stop offset="1" stop-color="#254AA5"/>
</linearGradient>
<linearGradient id="paint3_linear_303_906" x1="-4.75714e-08" y1="12.025" x2="74" y2="12.025" gradientUnits="userSpaceOnUse">
<stop stop-color="#222357"/>
<stop offset="1" stop-color="#254AA5"/>
</linearGradient>
<clipPath id="clip0_303_906">
<rect width="74" height="23.9492" fill="white"/>
</clipPath>
</defs>
</svg>
