<svg width="18" height="14" viewBox="0 0 18 14" fill="none" xmlns="http://www.w3.org/2000/svg">
<path d="M8.99995 10.7501C7.02469 10.7501 5.42573 9.22116 5.27859 7.28366L2.54682 5.17246C2.18771 5.62298 1.85724 6.09929 1.59057 6.62012C1.531 6.73796 1.49996 6.86815 1.49996 7.0002C1.49996 7.13224 1.531 7.26243 1.59057 7.38028C3.00281 10.1357 5.79865 12.0001 8.99995 12.0001C9.70073 12.0001 10.3768 11.8959 11.0283 11.7277L9.67703 10.6821C9.45386 10.7252 9.22724 10.748 8.99995 10.7501ZM17.1723 12.2631L14.2934 10.0381C15.168 9.30108 15.8872 8.39754 16.4093 7.38002C16.4689 7.26217 16.4999 7.13198 16.4999 6.99994C16.4999 6.86789 16.4689 6.7377 16.4093 6.61986C14.9971 3.86439 12.2013 2.00007 8.99995 2.00007C7.65919 2.00169 6.34021 2.33923 5.16349 2.98184L1.85047 0.421161C1.80727 0.387543 1.75786 0.362768 1.70508 0.348251C1.6523 0.333734 1.59718 0.32976 1.54286 0.336555C1.48854 0.343351 1.43609 0.360784 1.38852 0.387857C1.34094 0.41493 1.29916 0.451113 1.26557 0.494338L0.754376 1.15241C0.686563 1.23965 0.656176 1.35024 0.669899 1.45988C0.683622 1.56952 0.740331 1.66922 0.827553 1.73705L16.1494 13.579C16.1926 13.6126 16.242 13.6374 16.2948 13.6519C16.3476 13.6664 16.4027 13.6704 16.457 13.6636C16.5114 13.6568 16.5638 13.6394 16.6114 13.6123C16.659 13.5852 16.7007 13.549 16.7343 13.5058L17.2458 12.8477C17.3136 12.7605 17.3439 12.6498 17.3301 12.5402C17.3164 12.4306 17.2596 12.3309 17.1723 12.2631ZM12.388 8.56517L11.3645 7.77403C11.4507 7.52493 11.4964 7.26363 11.4999 7.00007C11.505 6.6142 11.4195 6.23251 11.2504 5.88568C11.0812 5.53884 10.833 5.23651 10.5258 5.00299C10.2185 4.76946 9.86084 4.61124 9.48137 4.54104C9.10191 4.47084 8.71127 4.49061 8.34083 4.59876C8.49787 4.81155 8.58281 5.06894 8.58328 5.3334C8.5794 5.4214 8.56595 5.50872 8.54318 5.59382L6.62625 4.11231C7.29213 3.55585 8.13217 3.25071 8.99995 3.25007C9.49248 3.24979 9.98024 3.3466 10.4353 3.53496C10.8904 3.72332 11.3039 3.99953 11.6522 4.34781C12.0005 4.69608 12.2767 5.10959 12.4651 5.56468C12.6534 6.01978 12.7502 6.50753 12.7499 7.00007C12.7499 7.56335 12.6122 8.08835 12.388 8.56543V8.56517Z" fill="#9FA2B4"/>
</svg>
