<svg width="26" height="26" viewBox="0 0 26 26" fill="none" xmlns="http://www.w3.org/2000/svg">
<path d="M12.6875 0C5.68106 0 0 5.68106 0 12.6875C0 19.6939 5.68106 25.375 12.6875 25.375C19.6939 25.375 25.375 19.6939 25.375 12.6875C25.375 5.68106 19.6939 0 12.6875 0ZM18.7849 9.56377C18.7934 9.69688 18.7934 9.83564 18.7934 9.97158C18.7934 14.129 15.6271 18.918 9.84131 18.918C8.05713 18.918 6.40322 18.3997 5.00986 17.5076C5.26475 17.5359 5.5083 17.5473 5.76885 17.5473C7.2415 17.5473 8.59521 17.0488 9.67422 16.2049C8.29219 16.1766 7.13105 15.2703 6.73457 14.0242C7.21885 14.095 7.65498 14.095 8.15342 13.9676C7.4418 13.823 6.80219 13.4365 6.34323 12.8738C5.88427 12.3111 5.63429 11.6068 5.63574 10.8807V10.841C6.05205 11.0761 6.54199 11.2205 7.05459 11.2403C6.62367 10.9531 6.27028 10.5641 6.02574 10.1076C5.78121 9.65114 5.65308 9.14138 5.65273 8.62354C5.65273 8.0373 5.80566 7.50205 6.08037 7.0376C6.87023 8.00994 7.85586 8.80519 8.97319 9.37166C10.0905 9.93813 11.3146 10.2632 12.5657 10.3256C12.1211 8.1874 13.7184 6.45703 15.6385 6.45703C16.5447 6.45703 17.3604 6.83652 17.9353 7.44824C18.6461 7.31514 19.3258 7.04893 19.9318 6.69209C19.6968 7.41992 19.204 8.03447 18.5498 8.42246C19.1842 8.35449 19.7959 8.17891 20.3623 7.93252C19.9347 8.56123 19.3994 9.11914 18.7849 9.56377Z" fill="black"/>
</svg>
