<svg width="29" height="23" viewBox="0 0 29 23" fill="none" xmlns="http://www.w3.org/2000/svg">
<path d="M27.8438 9.30859H24.3633V5.64766C24.3633 5.07725 23.9024 4.61641 23.332 4.61641H13.1807L9.40049 1.00059C9.35239 0.955558 9.28913 0.930252 9.22324 0.929688H1.03125C0.46084 0.929688 0 1.39053 0 1.96094V21.0391C0 21.6095 0.46084 22.0703 1.03125 22.0703H23.5254C23.9443 22.0703 24.3246 21.8157 24.4825 21.4258L28.8009 10.7266C28.8492 10.6041 28.875 10.472 28.875 10.3398C28.875 9.76943 28.4142 9.30859 27.8438 9.30859ZM2.32031 3.25H8.39502L12.2493 6.93672H22.043V9.30859H5.60742C5.18848 9.30859 4.8082 9.56318 4.65029 9.95312L2.32031 15.7281V3.25ZM22.7938 19.75H3.06152L6.39053 11.5H26.1261L22.7938 19.75Z" fill="#F8F8F8"/>
</svg>
