<svg width="24" height="18" viewBox="0 0 24 18" fill="none" xmlns="http://www.w3.org/2000/svg">
<path d="M22.3411 0.77014C22.2448 0.760214 22.1477 0.760214 22.0513 0.77014H2.26323C2.13641 0.772094 2.01042 0.791111 1.88867 0.826677L12.1007 10.9964L22.3411 0.77014Z" fill="white"/>
<path d="M23.3866 1.75254L13.0968 12C12.832 12.2632 12.4737 12.411 12.1003 12.411C11.7269 12.411 11.3687 12.2632 11.1039 12L0.905916 1.83028C0.874565 1.9455 0.857943 2.06424 0.856445 2.18364V16.318C0.856445 16.6929 1.00536 17.0524 1.27043 17.3175C1.5355 17.5825 1.89501 17.7314 2.26988 17.7314H22.058C22.4329 17.7314 22.7924 17.5825 23.0574 17.3175C23.3225 17.0524 23.4714 16.6929 23.4714 16.318V2.18364C23.4658 2.0364 23.4372 1.89094 23.3866 1.75254ZM3.23809 16.318H2.25575V15.3074L7.39359 10.212L8.39006 11.2084L3.23809 16.318ZM22.0439 16.318H21.0544L15.9025 11.2084L16.8989 10.212L22.0368 15.3074L22.0439 16.318Z" fill="white"/>
</svg>
