<svg width="87" height="87" viewBox="0 0 87 87" fill="none" xmlns="http://www.w3.org/2000/svg">
<circle cx="43.5" cy="43.5" r="43.5" fill="#069ABA"/>
<g clip-path="url(#clip0_401_23)">
<path fill-rule="evenodd" clip-rule="evenodd" d="M14.3027 32.9668C16.6795 34.9692 23.0548 37.7498 29.4301 37.0093C33.2494 36.5786 36.9714 34.3118 40.103 31.3876C43.0104 28.7051 47.876 26.3627 51.6803 26.0605C60.1857 25.388 68.0559 30.6924 69.872 35.6417C66.7778 32.8006 59.7074 30.5715 53.788 31.2893C49.752 31.7805 46.9717 34.0624 43.5187 36.692C33.5259 44.301 20.5585 42.8502 14.3027 32.9668Z" fill="#F1F2F2"/>
<path fill-rule="evenodd" clip-rule="evenodd" d="M75.9707 54.7134C73.6313 52.6732 67.3008 49.7792 60.918 50.4139C57.0913 50.7993 53.3319 53.0283 50.1554 55.8619C47.2032 58.4914 42.3227 60.7583 38.4885 60.9623C29.9756 61.5139 21.2011 57.0558 19.4746 52.0763C22.524 54.9929 30.5137 56.3077 36.4481 55.6881C40.4915 55.2725 43.3092 53.0359 46.7996 50.4668C56.9419 43.024 69.8868 44.7015 75.9707 54.7134Z" fill="#F1F2F2"/>
<path fill-rule="evenodd" clip-rule="evenodd" d="M12 37.2888C16.305 43.2355 30.5131 50.2476 44.3102 40.077C58.1072 29.9065 73.4588 35.6567 76 48.4492C70.2973 41.8679 58.7948 38.8454 46.8812 46.4015C33.2262 55.0533 18.7266 55.1515 12 37.2888Z" fill="#F1F2F2"/>
</g>
<defs>
<clipPath id="clip0_401_23">
<rect width="64" height="35" fill="white" transform="translate(12 26)"/>
</clipPath>
</defs>
</svg>
